<?xml version="1.0" encoding="utf-8"?>
<!-- Generator: Adobe Illustrator 19.0.0, SVG Export Plug-In . SVG Version: 6.00 Build 0)  -->
<svg version="1.1" xmlns="http://www.w3.org/2000/svg" xmlns:xlink="http://www.w3.org/1999/xlink" x="0px" y="0px"
	 viewBox="0 0 283.5 283.5" style="enable-background:new 0 0 283.5 283.5;" xml:space="preserve">
<style type="text/css">
	.st0{display:none;}
	.st1{display:inline;fill:#FFFFFF;stroke:#000000;stroke-miterlimit:10;}
	.st2{fill:#9D9D9C;}
	.st3{display:inline;fill:#878787;}
	.st4{display:inline;fill:#B2B2B2;}
</style>
<g id="Layer_1" class="st0">
	<circle id="XMLID_1_" class="st1" cx="141.7" cy="141.7" r="131"/>
</g>
<g id="Layer_2">
	<path id="XMLID_2_" class="st2" d="M45.7,41.1c3.7,0.2,6.3,4.3,6.3,7.7c0,0.4-0.1,3.2-2.2,5.2c-2.4,2.2-6.3,2.5-7.4,1.1
		c-1-1.4,1.5-3.6,0.4-5.9c-0.9-1.9-3.4-1.6-3.7-3C38.7,44.4,42.1,40.8,45.7,41.1z"/>
	<path id="XMLID_3_" class="st2" d="M32.5,78.7c1.5,4.2,6.1,4.6,5.9,7c-0.2,2.3-4.7,4.2-4.9,4.3c-0.5,0.2-0.9,0.3-1.3,0.4
		c-4.4,1.3-6.2,0.1-8.1,1.1c-2.4,1.2-3.5,4.9-3,7.7c0.5,2.6,2.5,5.7,4.4,5.5c1.8-0.1,1.8-3,4.8-6.6c3.7-4.6,6.5-3.5,9.6-7.7
		c0.7-1,3.7-5.1,2.6-9.6c-1.3-5.2-7.7-8.7-9.6-7.4C31.7,74.3,31.8,76.9,32.5,78.7z"/>
	<path id="XMLID_4_" class="st2" d="M7.7,119.3c3.7-1.9,11.5,4.8,10.7,7c-0.6,1.8-6.7-0.5-10,3c-2.9,3.1-1.3,8.5-1.5,8.5
		C6.7,137.8,2.9,121.7,7.7,119.3z"/>
	<path id="XMLID_5_" class="st2" d="M13.6,156.2c-1.1-0.4-4.3,3.1-5.2,7.4c-0.1,0.5-1.6,7.9,3,10.7c2.7,1.6,6.8,1.3,8.1-0.7
		c1.3-2.1-0.7-5.8-1.8-7.7c-1.3-2.3-2.2-2.6-3-4.8C13.7,158.2,14.3,156.5,13.6,156.2z"/>
	<path id="XMLID_6_" class="st2" d="M17,186.8c2.4-0.3,4.4,1.8,5.2,3.7c0.7,1.7,0.7,4.3-0.7,5.5c-2.2,1.9-7.6,0.4-8.5-3
		C12.2,190.6,14.1,187.2,17,186.8z"/>
	<path id="XMLID_7_" class="st2" d="M28,212.3c1.8-0.1,3.8-0.1,6.3,0.7c0.4,0.1,5.4,2,5.2,4.1c-0.2,1.6-3.5,2.7-5.9,3
		c-6.2,0.5-12.4-4.4-11.8-6.3C22.1,212.6,25.2,212.4,28,212.3z"/>
	<path id="XMLID_8_" class="st2" d="M47.6,234.4c0-0.4,0.1-3.2,1.8-4.1c2-1,5.2,1,6.6,3.3c2.6,4.1,0.7,10.6-1.5,11.1
		c-1.7,0.3-3.8-2.9-5.2-5.2C48.4,237.9,47.5,236.5,47.6,234.4z"/>
	<path id="XMLID_9_" class="st2" d="M68.6,252.5c-0.4,1.1,0.1,2.7,0.7,4.7c0,0,0.2,0.7,0.4,1.2c0.5,1.3,3.7,8.2,10.3,10
		c5.3,1.5,11.9-0.7,12.2-3c0.3-2-4.2-5.1-8.5-5.2c-4.2,0-6.4,2.8-7.7,1.8c-2-1.5,2.8-8.6,0.4-11.1C74.6,249.2,69.4,250.4,68.6,252.5
		z"/>
	<path id="XMLID_10_" class="st2" d="M118.8,266.2c-2.2,2.2-4.2,4.2-3.7,5.9c0.8,2.6,7.2,2.8,16.2,3c8.6,0.2,15.5-0.4,15.5-1.1
		c0-1-16.5,0-18.5-5.9c-1-3.1,2.6-6.2,1.5-7.4C128.5,259.3,122.7,262.3,118.8,266.2z"/>
	<path id="XMLID_11_" class="st2" d="M176.4,261.4c-3.2,1.2-5.8,4.4-5.2,5.9c0.6,1.6,4.4,0.2,8.9,3c1.9,1.2,1.9,1.9,3.3,2.2
		c3.3,0.8,8-1.9,8.1-4.4C191.7,264.4,182.8,258.9,176.4,261.4z"/>
	<path id="XMLID_12_" class="st2" d="M211.8,256.6c-1.9,0.4-6-3.3-4.8-7.4c0.9-3.2,4.7-5,6.3-4.1C215.8,246.6,214.4,256,211.8,256.6
		z"/>
	<path id="XMLID_13_" class="st2" d="M231,233.3c3,2.3,4.5,3.5,6.3,3.3c2.7-0.3,4.4-3.2,6.3-6.3c2.2-3.7,3.8-8.4,3-8.9
		c-1.1-0.6-4.2,7.8-10.7,8.9c-5.5,0.9-10.1-4.1-10.7-3.3C224.6,227.7,228.1,231.1,231,233.3z"/>
	<path id="XMLID_14_" class="st2" d="M255.7,206c-3.4-0.6-6.8-13.5-2.2-16.6c3.2-2.1,9.6,0.8,12.5,5.2c2.7,4,2.9,9.7,1.1,10.7
		c-1.4,0.8-3.2-2-6.6-1.5C257.7,204.2,257.1,206.3,255.7,206z"/>
	<path id="XMLID_15_" class="st2" d="M271.9,162.8c-1.9,1.4-4.9,1.7-6.6,0.4c-3.2-2.5-0.6-9.9,0-11.4c0.3-0.7,2.8-7.7,5.2-7.4
		C273.7,144.8,277.3,158.8,271.9,162.8z"/>
	<path id="XMLID_16_" class="st2" d="M269,121.5c1.3,0.4,4.7-3.4,4.8-7.7c0.1-3.6-2.1-8-5.9-8.9c-3.5-0.8-7.5,1.7-7.4,3.3
		c0.1,1.5,3.9,1.1,6.3,4.1C269.7,116,267.6,121.1,269,121.5z"/>
	<path id="XMLID_17_" class="st2" d="M67.1,38.1c-2.6-0.5-4.8-5.6-3.3-9.2c2.1-5.1,10.9-6,12.5-3.7c1.3,1.8-1.7,5.9-3,7.7
		C71.7,35.3,69.4,38.5,67.1,38.1z"/>
	<path id="XMLID_18_" class="st2" d="M98.5,21.2c-0.8-0.8-0.9-1.9-1.1-4.1c-0.3-2.5-0.7-5.9,0.8-7c2.8-2.1,13.3,4.1,12.5,8.1
		C110,21.6,101.2,24,98.5,21.2z"/>
	<path id="XMLID_19_" class="st2" d="M125.8,14.9c-0.6-2.4,6.5-7.2,13.7-8.5c1.8-0.3,8.9-1.7,15.1,2.6c3.7,2.5,7.4,7.2,6.3,9.2
		c-1.1,1.8-5.4,0.1-15.9-1.1C131.7,15.5,126.3,16.8,125.8,14.9z"/>
	<path id="XMLID_20_" class="st2" d="M182.6,20.4c0.9-5.1,5.7-7.8,7-8.5c6.6-3.6,14.3-1.7,14.4-0.7c0.1,1-8.8,1.6-8.9,3.7
		c-0.1,2.1,8.5,2.7,8.9,5.9c0.2,2.1-3.1,5.1-5.9,4.8c-3.2-0.3-4-4.6-6.3-4.4c-3.1,0.2-3.6,8.5-5.9,8.5
		C184.2,29.7,181.9,24.8,182.6,20.4z"/>
	<path id="XMLID_21_" class="st2" d="M209.6,33c0.3-2.3,10.1-4.9,16.6-0.7c2.6,1.7,5.2,4.8,4.4,6.3c-1.1,2.1-8.7,0.3-12.2-0.7
		C216.3,37.1,209.4,34.9,209.6,33z"/>
	<path id="XMLID_22_" class="st2" d="M237.2,53.3c1.8-2.5,7.4-1.9,10.7,0.7c2.7,2.1,4.9,6.4,3.3,8.9c-1.7,2.6-7,2.3-10.3,0
		C237.6,60.6,235.5,55.7,237.2,53.3z"/>
	<path id="XMLID_23_" class="st2" d="M253.5,80.6c0.2-0.9,7-2.1,11.1,1.8c2.2,2.2,4.2,6.5,2.2,9.2c-2,2.8-7.3,2.7-8.1,1.1
		c-0.8-1.5,3.1-3.7,2.6-6.6C260.5,82.4,253.3,81.5,253.5,80.6z"/>
</g>
<g id="Layer_3" class="st0">
	<path id="XMLID_24_" class="st3" d="M43.5,60.3c0.5-1.7-6.4-6.9-9.6-4.8c-2.8,1.8-2.5,8.8,1.1,11.1c3,1.9,7.7,0,7.7-1.1
		c0-1.4-6.8-2.3-6.6-3.3C36.3,61,43.1,61.9,43.5,60.3z"/>
	<path id="XMLID_25_" class="st3" d="M18.8,105.3c-2.7-1.6-6.8-2.4-8.1-0.7c-1.3,1.5,0.3,4.8,1.5,7.4c0.6,1.3,1.9,3.7,4.4,6.3
		c2,2,6,6.1,7.7,5.2C26.9,122,25.9,109.5,18.8,105.3z"/>
	<path id="XMLID_26_" class="st3" d="M13.6,140c-3.5-0.8-8,0.7-8.5,3.3c-0.5,2.7,3.3,6,7,6.3c2.9,0.2,6.7-1.4,7-4.1
		C19.5,142.9,16.3,140.6,13.6,140z"/>
	<path id="XMLID_27_" class="st3" d="M24.7,84.6c-0.3-0.3-0.7-0.8-1.5-1.1c-1-0.4-1.8,0-2.5,0c-2,0-4.7-2.6-4.5-5.2
		c0.2-2.8,3.8-4.1,5.9-4.4c2.3-0.3,4,0.5,7.4,2.2c3.8,1.9,5.6,2.8,5.9,4.4c0.4,2.6-2.9,5.9-5.9,5.9C28.4,86.5,26.2,86.1,24.7,84.6z"
		/>
	<path id="XMLID_28_" class="st3" d="M56.8,46.2c-2.2,0.1-5.5-8.9-3.7-10.3c1.1-0.8,4.3,0.6,5.5,3.3C60.1,42.4,58.2,46.2,56.8,46.2z
		"/>
	<path id="XMLID_29_" class="st3" d="M22.1,176.1c-2.4-3.6-14.9-1.2-15.5,2.2c-0.4,2.1,3.8,5.2,7.7,5.5c0.7,0.1,4.9,0.4,7-2.6
		C22.3,180,23.1,177.6,22.1,176.1z"/>
	<path id="XMLID_30_" class="st3" d="M25.4,199.4c-1.7-0.9-6.6,3.8-5.9,5.2c0.4,0.8,2.4,0.1,10,0c3-0.1,3.6,0,3.7,0.4
		c0.5,1.3-5.4,5.7-7.4,4.4C23.6,207.9,27.3,200.4,25.4,199.4z"/>
	<path id="XMLID_31_" class="st3" d="M36.5,225.9c3-2.2,8.4-5.4,9.2-4.4c0.9,1.1-4.9,4.9-4.4,10.3c0.4,4.5,4.9,6.7,4.4,7.4
		c-0.9,1.2-13.9-4.5-13.3-9.2C32.6,228.8,33.9,227.8,36.5,225.9z"/>
	<path id="XMLID_32_" class="st3" d="M81.5,27.4c-1.1,0.1-3.5-4.5-1.8-7.7c1.8-3.5,7.7-4.7,10.3-2.2c2.1,1.9,2,6,0.7,6.6
		c-1.4,0.7-3.6-3.3-5.9-2.6C82.5,22.2,82.7,27.4,81.5,27.4z"/>
	<path id="XMLID_33_" class="st3" d="M115.1,16.4c-3.8-1.6-5.8-7.7-3.7-10c1.8-1.9,6.6-1.5,8.9,1.5c1.8,2.4,1.8,6.4-0.4,8.1
		C118,17.5,115.2,16.4,115.1,16.4z"/>
	<path id="XMLID_34_" class="st3" d="M164.2,14.9c-0.7-1.1,2.1-5.5,5.9-5.9c4.1-0.5,8.6,3.6,8.1,7.4c-0.4,3.5-5,6-6.3,5.2
		c-1.3-0.8,1-4.6-0.7-6.3C169.3,13.4,164.9,16.1,164.2,14.9z"/>
	<path id="XMLID_35_" class="st3" d="M202.2,27.8c0.7-4.4,9.7-6.3,10.7-4.8c1.1,1.7-6.1,9.7-9.2,8.5C202.5,31,202,29.1,202.2,27.8z"
		/>
	<path id="XMLID_36_" class="st3" d="M226.2,45.9c1.2-4,6.1-5.3,7-5.5c8.4-2.3,17.1,5,16.6,6.3c-0.6,1.4-12.1-4.1-15.9,0.4
		c-2.8,3.2,0.7,9.3-0.7,10C231.5,57.7,224.5,51.4,226.2,45.9z"/>
	<path id="XMLID_37_" class="st3" d="M250.2,74.3c0.9,2.7,13.7,2.3,14.4-0.4c0.4-1.6-3.4-5.1-7.7-4.8
		C252.9,69.4,249.7,72.7,250.2,74.3z"/>
	<path id="XMLID_38_" class="st3" d="M270.1,96.4c-3.1-3-9.6-1.8-10.3,0.4c-0.6,1.7,2.2,4.4,4.8,5.5c2.1,0.9,5.8,1.5,7-0.4
		C272.6,100.4,271.5,97.8,270.1,96.4z"/>
	<path id="XMLID_39_" class="st3" d="M275.6,130c-4.1-3.1-10.5-2.3-11.1-0.7c-0.4,1.1,2.2,1.7,3.3,4.8c1.3,3.5-1.1,5.5,0,8.1
		c1.4,3.3,7.5,5.3,10.3,3.3C281.7,143,280.7,133.8,275.6,130z"/>
	<path id="XMLID_40_" class="st3" d="M269,176.9c-1.5,2.2-9.7-1-10-0.4c-0.3,0.7,10.5,3.5,11.1,8.5c0.2,1.8-1,3.5-2.2,4.8
		c5.3-1,8.8-5.5,8.5-10c-0.5-6.2-8-9.3-8.9-8.5C266.8,171.9,270.1,175.3,269,176.9z"/>
	<path id="XMLID_41_" class="st3" d="M256.1,216c0.7-3.9-9.9-10.5-12.5-8.5c-2,1.6-1.3,9.6,4.1,11.4
		C251.1,220.2,255.6,218.3,256.1,216z"/>
	<path id="XMLID_42_" class="st3" d="M224.7,244.8c-5.7-3.4-7.8-4.4-10.7-4.8c-3.2-0.4-5.1,0.4-5.2,0c-0.2-0.9,9.3-7.2,17.3-4.4
		c4.8,1.6,5.9,5.4,10.7,5.5c4.3,0.1,6.7-2.9,7.4-2.2c1,1.2-4.4,10.7-10.7,10.7C232.4,249.6,232.2,249.2,224.7,244.8z"/>
	<path id="XMLID_43_" class="st3" d="M203.7,263.2c1.4-2.1-3.4-9.1-6.3-8.5c-1.8,0.4-3.4,3.9-2.2,6.6
		C196.8,265,202.6,264.8,203.7,263.2z"/>
	<path id="XMLID_44_" class="st3" d="M162.3,273.9c-5.4-4.9-3.5-12.2-6.3-12.9c-2.2-0.6-6.1,3.5-6.6,8.1c-0.4,3.5,1.2,6.9,3.7,8.9
		c5.4,4.2,13.9,1.1,14-0.7C167.2,276.3,164.9,276.2,162.3,273.9z"/>
	<path id="XMLID_45_" class="st3" d="M102.9,270.6c-3.7-0.4-7.8-3.6-7.4-6.6c0.4-2.8,4.3-4.2,4.8-4.4c4.4-1.6,10.6-0.1,11.4,3.3
		c0.6,2.3-1.5,5-3.3,6.3C108.1,269.4,105.9,270.9,102.9,270.6z"/>
	<path id="XMLID_46_" class="st3" d="M60.1,249.9c2.3,2.3,12.8-2.3,12.5-5.2c-0.2-2-6-5-10-2.2C59.9,244.5,58.8,248.6,60.1,249.9z"
		/>
</g>
<g id="Layer_4" class="st0">
	<path id="XMLID_47_" class="st4" d="M164.9,9.7c-2.4-1.4-6.9,1.1-7,3.7c-0.2,2.8,4.7,5.8,7,4.4C167.2,16.6,167.4,11.2,164.9,9.7z"
		/>
	<path id="XMLID_48_" class="st4" d="M56.1,45.9c-1.4,1-3.8,1.8-5.2,0.7c-1.9-1.4-1.3-5.6,0.7-8.1c1.7-2.2,5.1-3.7,6.6-2.6
		C60.3,37.3,59.6,43.4,56.1,45.9z"/>
	<path id="XMLID_49_" class="st4" d="M23.6,88.3c-2.3-1.7-10.5,3.1-10,6.6c0.3,2.2,4.1,4.2,7,3.3C25,96.9,25.5,89.7,23.6,88.3z"/>
	<path id="XMLID_50_" class="st4" d="M265.3,125.2c-1.2-4,5.3-8.8,7.4-7.7c2.2,1.1,1.7,9.9-1.8,11.1
		C268.9,129.2,265.9,127.4,265.3,125.2z"/>
	<path id="XMLID_51_" class="st4" d="M250.5,68.8c-3.6,1.2-8.7,0.3-9.6-2.2c-1.1-3.1,4-8.3,7.4-7.7c2.5,0.4,2.9,4,5.2,4.1
		c2.9,0.1,5-5.6,5.2-5.5C258.9,57.4,257.1,66.5,250.5,68.8z"/>
	<path id="XMLID_52_" class="st4" d="M226.9,43.7c-5,0.9-9.1-4.2-8.5-6.3c0.9-3,13.2-3.2,14.4,0C233.5,39.3,230.7,43,226.9,43.7z"/>
	<path id="XMLID_53_" class="st4" d="M12.5,129.6c-5-1.3-11.1,2.5-11.1,5.5c0,3.9,10.2,8.9,14.4,5.5c1.7-1.4,2.6-4.2,1.8-6.6
		C16.7,130.9,13.4,129.9,12.5,129.6z"/>
	<path id="XMLID_54_" class="st4" d="M25.4,193.5c-0.5-1.8-6.3-3-10.3,0c-3.3,2.5-4.7,7.3-3.3,8.5C14.1,204.1,26.3,196.4,25.4,193.5
		z"/>
	<path id="XMLID_55_" class="st4" d="M144.3,266.5c-2.8,1.4-7.3,2-8.5,0c-1.1-1.9,1-6.2,4.4-7.4c3.4-1.2,7.8,0.7,8.1,3
		C148.6,264.3,144.7,266.3,144.3,266.5z"/>
	<path id="XMLID_56_" class="st4" d="M190,256c-1.9,0.1-4.7,4-3,7c1.6,2.7,5.8,2.8,7,1.3C195.7,262.3,192.5,255.9,190,256z"/>
	<path id="XMLID_57_" class="st4" d="M259,207.3c-1-4.2-5.5-7.8-8.3-6.7c-2.5,1-3.3,5.5-2.3,8.7c1.1,3.6,4.8,7.2,7.7,6.3
		C258.6,214.8,259.7,210.5,259,207.3z"/>
</g>
</svg>
