<?xml version="1.0" encoding="utf-8"?>
<!-- Generator: Adobe Illustrator 19.0.0, SVG Export Plug-In . SVG Version: 6.00 Build 0)  -->
<svg version="1.1" id="Layer_1" xmlns="http://www.w3.org/2000/svg" xmlns:xlink="http://www.w3.org/1999/xlink" x="0px" y="0px"
	 viewBox="114 -114.5 512 512" style="enable-background:new 114 -114.5 512 512;" xml:space="preserve">
<style type="text/css">
	.st0{fill:#727272;}
</style>
<path class="st0" d="M576,166.2v-49.4l-46.4-16.5c-3.9-15.1-9.9-29.3-17.7-42.4l0.1-0.1l21.2-44.5l-35-35L453.7-0.5l-0.1,0.1
	c-13.1-7.8-27.4-13.8-42.4-17.7l-16.5-46.4h-49.4l-16.5,46.4c-15.1,3.9-29.3,9.9-42.4,17.7l-0.1-0.1l-44.5-21.2l-35,35L228,57.7
	l0.1,0.1c-7.8,13.1-13.8,27.4-17.7,42.4L164,116.7v49.4l46.4,16.5c3.9,15.1,9.9,29.3,17.7,42.4l-0.1,0.1l-21.2,44.5l35,35l44.5-21.2
	l0.1-0.1c13.1,7.8,27.4,13.8,42.4,17.7l16.5,46.4h49.4l16.5-46.4c15.1-3.9,29.3-9.9,42.4-17.7l0.1,0.1l44.5,21.2l35-35L512,225.2
	l-0.1-0.1c7.8-13.1,13.8-27.4,17.7-42.4L576,166.2z M370,223.9c-45.5,0-82.4-36.9-82.4-82.4c0-45.5,36.9-82.4,82.4-82.4
	s82.4,36.9,82.4,82.4S415.5,223.9,370,223.9z"/>
</svg>
