<?xml version="1.0" encoding="utf-8"?>
<!-- Generator: Adobe Illustrator 19.0.0, SVG Export Plug-In . SVG Version: 6.00 Build 0)  -->
<svg version="1.1" xmlns="http://www.w3.org/2000/svg" xmlns:xlink="http://www.w3.org/1999/xlink" x="0px" y="0px"
	 viewBox="0 0 283.5 283.5" style="enable-background:new 0 0 283.5 283.5;" xml:space="preserve">
<style type="text/css">
	.st0{fill:#1D71B8;}
	.st1{fill:none;}
	.st2{fill:#FFFFFF;}
	.st3{fill:#008D36;}
	.st4{fill:#95C11F;}
	.st5{fill:#EDEDED;}
</style>
<g id="Layer_1">
	<path id="XMLID_26_" class="st0" d="M283.4,19.4v0.1c0,1.1-0.1,2.3-0.3,3.4c-0.4,2.5-1.4,4.9-2.7,7c-0.3,0.5-0.7,1.1-1.1,1.6
		c-1.4,1.8-3,3.3-4.9,4.5c-3,2-6.6,3.1-10.5,3.1c-2.9,0-5.6-0.6-8.1-1.8c-1.3-0.6-2.6-1.4-3.7-2.2c-0.7-0.5-1.3-1.1-1.9-1.7
		c-0.2-0.2-0.5-0.5-0.6-0.7c-0.9-1-1.8-2.1-2.5-3.3c-1.3-2.1-2.1-4.5-2.5-7.1c-0.1-0.9-0.2-1.8-0.2-2.8c0-0.9,0.1-1.7,0.2-2.5
		c0.3-2.1,0.8-4,1.7-5.8c0.4-0.8,0.8-1.6,1.3-2.4c0.2-0.4,0.5-0.7,0.8-1.1c0.6-0.8,1.3-1.6,2-2.3c0,0,0,0,0,0
		c0.4-0.4,0.9-0.8,1.3-1.2C255,1.6,259.3,0,263.9,0c3.4,0,6.6,0.9,9.4,2.4c0.2,0.1,0.3,0.2,0.5,0.3c0.9,0.5,1.7,1.1,2.5,1.8
		c0.5,0.4,1,0.8,1.4,1.3v0C281.2,9.3,283.3,14.1,283.4,19.4z"/>
	<polyline id="XMLID_5_" class="st1" points="0,283.5 250.1,33.3 252,31.5 252.8,30.6 272.7,10.8 277.7,5.8 279.3,4.2 279.3,4.2 
		281.2,2.2 	"/>
</g>
<g id="Layer_2">
	<path id="XMLID_9_" class="st2" d="M273.8,2.7c-0.9,0-2.1,0.1-3.3,0.8c-2.1,1.3-2,3.4-3.7,3.7c-1.5,0.3-2-1.5-4-1.5
		c-2.2,0-2.9,2-4.8,1.8c-1.3-0.1-1.3-1-2.8-1.8c-1.7-0.9-3-0.5-4.8-0.3c0.4-0.4,0.9-0.8,1.3-1.2C255,1.6,259.3,0,263.9,0
		c3.4,0,6.6,0.9,9.4,2.4C273.5,2.5,273.6,2.6,273.8,2.7z"/>
	<path id="XMLID_10_" class="st2" d="M274.4,35.9c-3,2-6.6,3.1-10.5,3.1c-2.9,0-5.6-0.6-8.1-1.8c-1.3-0.6-2.6-1.4-3.7-2.2
		c2.1-1.6,7-1.5,10.2-0.8c3,0.6,3.5,1.6,6.7,2C271.3,36.5,273.1,36.2,274.4,35.9z"/>
</g>
<g id="Layer_3">
	<path id="XMLID_12_" class="st3" d="M283.4,19.4v0.1c0,1.1-0.1,2.3-0.3,3.4c-0.4-0.3-0.9-0.5-1.6-0.6c-1.1-0.2-1.3,0.2-2.1-0.1
		c-1.3-0.5-1.3-1.8-2.3-2c-0.8-0.1-1.1,0.8-2.5,1.1c-1.3,0.3-2.8,0-2.9-0.5c-0.1-0.4,0.9-0.6,1-1.5c0.1-0.5-0.2-0.6-0.4-1.5
		c-0.1-0.6-0.2-1.3,0.1-1.6c0.3-0.3,0.7,0,1.5,0c0.9,0,2.3-0.4,2.5-1.1c0.2-0.8-0.8-1.8-1.5-1.8c-0.6,0.1-0.6,0.8-1.3,1
		c-1,0.2-2.1-0.6-2.3-1.4c-0.1-0.7,0.5-1.1,1.2-2.1c0.2-0.2,0.3-0.5,0.5-0.8c0.7-1.5,0.3-2.1,0.9-3.3c0.5-1,1.3-1.8,2.3-2.3
		c0.5,0.4,1,0.8,1.4,1.3v0C281.2,9.3,283.3,14.1,283.4,19.4z"/>
	<path id="XMLID_16_" class="st3" d="M261.6,11.2c0.2,1.3-1.3,2.4-2.3,3.1c-2.9,2.1-5.9,2.1-6.1,3.4c-0.1,0.5,0.3,0.4,1.3,2.4
		c0.6,1.3,1,1.9,0.7,2.5c-0.4,0.9-1.4,0.9-2.7,1.9c-1.7,1.3-1.2,2.2-2.2,3.3c-0.2,0.2-0.4,0.4-0.7,0.6c-0.7,0.5-1.6,0.8-2.6,1.1
		c-1.3-2.1-2.1-4.5-2.5-7.1c-0.1-0.9-0.2-1.8-0.2-2.8c0-0.9,0.1-1.7,0.2-2.5c0.3-2.1,0.8-4,1.7-5.8c0.4-0.8,0.8-1.6,1.3-2.4
		c0.2-0.4,0.5-0.7,0.8-1.1c3.3-0.2,5.9-0.4,8.8,0.5C258.2,8.5,261.3,9.5,261.6,11.2z"/>
	<path id="XMLID_17_" class="st4" d="M253.5,30.9c0,0.2-0.6,0.3-1.5,0.6c-0.5,0.2-1,0.3-1.6,0.6c-0.4,0.2-0.7,0.4-0.9,0.5
		c-0.9-1-1.8-2.1-2.5-3.3c-1.3-2.1-2.1-4.5-2.5-7.1c1.9,1,3.6,2.5,4.3,4.2c0.2,0.5,0.4,1.1,0.7,1.8c0.3,0.7,0.8,1.4,1.7,1.8
		c0.6,0.3,1.2,0.4,1.6,0.5C253.2,30.7,253.5,30.8,253.5,30.9z"/>
	<path id="XMLID_11_" class="st4" d="M274.8,32.6c-0.1,0.5,0.9,1,0.9,1.1c-0.1,0.1-1.9-1.4-4.2-2.3c-2.8-1-4.5-0.6-4.9-1.5
		c-0.3-0.8,0.6-2.1,1.6-2.8c1.5-0.9,2.5-0.1,6.5-0.5c1.1-0.1,1.2-0.2,1.6-0.1c2,0.2,3.8,2,4.1,3.3c-0.3,0.5-0.7,1.1-1.1,1.6
		C277.7,32,274.9,31.8,274.8,32.6z"/>
	<path id="XMLID_1_" class="st4" d="M263.1,19.3c0-1.2,0.8-2.1,1.7-2.2c1.1-0.1,1.9,1.3,1.8,2.2c-0.1,0.9-0.9,0.9-1.3,2
		c-0.5,1.4,0.6,2.2,0.3,3.1c-0.8,1.9-7.3,1.8-7.7,0.3c-0.2-0.8,1.3-2.3,2.8-2.4c1-0.1,1.5,0.4,2,0.1C263.4,22,263.3,20.6,263.1,19.3
		z"/>
</g>
<g id="Layer_4">
	<path id="XMLID_2_" class="st5" d="M248.3,15c0.2-0.9,2.9-0.9,4.1-0.9c1,0,1.8,0.1,2.3,0.2c2.2,0.4,4,1.3,3.9,1.4
		c-0.1,0.2-2.4-1.2-4.9-0.3c-1.6,0.6-1.9,1.6-3.1,1.6C249.3,16.9,248.1,15.7,248.3,15z"/>
	<path id="XMLID_3_" class="st5" d="M275.3,9.4c-0.1-0.9-4.8-1.9-6.7,0c-1,1.1-0.6,2.4-1.6,2.8c-1.4,0.6-3.4-1.7-3.9-1.2
		c-0.3,0.3,0.1,1.1,0.5,1.7c1,1.3,3.3,1.7,4.2,0.9c0.6-0.6,0.1-1.4,0.8-2c0.7-0.7,1.7-0.1,3.4-0.3C273.6,11,275.3,10,275.3,9.4z"/>
	<path id="XMLID_6_" class="st5" d="M255.7,28.7c-0.4,0.3-1.6-1.3-3.6-2.3c-2.5-1.2-5.1-0.7-5.1-0.5c0,0.2,3.7-0.2,5.3,1.9
		c1.1,1.6,0.1,3.2,1.1,4c1.4,1.1,5.3-0.3,5.4-2.3c0.1-1.7-2.6-3.4-3.2-3C255.2,26.9,256.1,28.4,255.7,28.7z"/>
</g>
</svg>
