<?xml version="1.0" encoding="utf-8"?>
<!-- Generator: Adobe Illustrator 19.0.0, SVG Export Plug-In . SVG Version: 6.00 Build 0)  -->
<svg version="1.1" id="Layer_1" xmlns="http://www.w3.org/2000/svg" xmlns:xlink="http://www.w3.org/1999/xlink" x="0px" y="0px"
	 viewBox="0 0 283.5 283.5" style="enable-background:new 0 0 283.5 283.5;" xml:space="preserve">
<style type="text/css">
	.st0{fill:none;stroke:#FFFFFF;stroke-miterlimit:10;}
	.st1{fill:#1D71B8;}
	.st2{fill:none;}
	.st3{fill:#FFFFFF;}
	.st4{fill:#008D36;}
	.st5{fill:#95C11F;}
	.st6{fill:#EDEDED;}
</style>
<circle class="st0" cx="141.8" cy="142.7" r="137.4"/>
<g id="Layer_1_1_">
	<path id="XMLID_26_" class="st1" d="M254.8,46.6L254.8,46.6c0,1-0.1,1.9-0.2,2.8c-0.3,2-1.1,3.9-2.2,5.6c-0.2,0.4-0.6,0.9-0.9,1.3
		c-1.1,1.4-2.4,2.6-3.9,3.6c-2.4,1.6-5.3,2.5-8.4,2.5c-2.3,0-4.5-0.5-6.5-1.4c-1-0.5-2.1-1.1-3-1.8c-0.6-0.4-1-0.9-1.5-1.4
		c-0.2-0.2-0.4-0.4-0.5-0.6c-0.7-0.8-1.4-1.7-2-2.6c-1-1.7-1.7-3.6-2-5.7c-0.1-0.7-0.2-1.4-0.2-2.2c0-0.7,0.1-1.4,0.2-2
		c0.2-1.7,0.6-3.2,1.4-4.6c0.3-0.6,0.6-1.3,1-1.9c0.2-0.3,0.4-0.6,0.6-0.9c0.5-0.6,1-1.3,1.6-1.8l0,0c0.3-0.3,0.7-0.6,1-1
		c2.6-2.1,6.1-3.4,9.7-3.4c2.7,0,5.3,0.7,7.5,1.9c0.2,0.1,0.2,0.2,0.4,0.2c0.7,0.4,1.4,0.9,2,1.4c0.4,0.3,0.8,0.6,1.1,1l0,0
		C253,38.6,254.7,42.4,254.8,46.6z"/>
	<polyline id="XMLID_5_" class="st2" points="28.7,257.3 228.2,57.7 229.7,56.3 230.4,55.6 246.2,39.8 250.2,35.8 251.5,34.5 
		251.5,34.5 253,32.9 	"/>
</g>
<g id="Layer_2">
	<path id="XMLID_9_" class="st3" d="M247.1,33.3c-0.7,0-1.7,0.1-2.6,0.6c-1.7,1-1.6,2.7-3,3c-1.2,0.2-1.6-1.2-3.2-1.2
		c-1.8,0-2.3,1.6-3.8,1.4c-1-0.1-1-0.8-2.2-1.4c-1.4-0.7-2.4-0.4-3.8-0.2c0.3-0.3,0.7-0.6,1-1c2.6-2.1,6.1-3.4,9.7-3.4
		c2.7,0,5.3,0.7,7.5,1.9C246.9,33.1,247,33.2,247.1,33.3z"/>
	<path id="XMLID_10_" class="st3" d="M247.6,59.8c-2.4,1.6-5.3,2.5-8.4,2.5c-2.3,0-4.5-0.5-6.5-1.4c-1-0.5-2.1-1.1-3-1.8
		c1.7-1.3,5.6-1.2,8.1-0.6c2.4,0.5,2.8,1.3,5.3,1.6C245.1,60.3,246.6,60,247.6,59.8z"/>
</g>
<g id="Layer_3">
	<path id="XMLID_12_" class="st4" d="M254.8,46.6L254.8,46.6c0,1-0.1,1.9-0.2,2.8c-0.3-0.2-0.7-0.4-1.3-0.5c-0.9-0.2-1,0.2-1.7-0.1
		c-1-0.4-1-1.4-1.8-1.6c-0.6-0.1-0.9,0.6-2,0.9c-1,0.2-2.2,0-2.3-0.4c-0.1-0.3,0.7-0.5,0.8-1.2c0.1-0.4-0.2-0.5-0.3-1.2
		c-0.1-0.5-0.2-1,0.1-1.3c0.2-0.2,0.6,0,1.2,0c0.7,0,1.8-0.3,2-0.9c0.2-0.6-0.6-1.4-1.2-1.4c-0.5,0.1-0.5,0.6-1,0.8
		c-0.8,0.2-1.7-0.5-1.8-1.1c-0.1-0.6,0.4-0.9,1-1.7c0.2-0.2,0.2-0.4,0.4-0.6c0.6-1.2,0.2-1.7,0.7-2.6c0.4-0.8,1-1.4,1.8-1.8
		c0.4,0.3,0.8,0.6,1.1,1l0,0C253,38.6,254.7,42.4,254.8,46.6z"/>
	<path id="XMLID_16_" class="st4" d="M237.4,40.1c0.2,1-1,1.9-1.8,2.5c-2.3,1.7-4.7,1.7-4.9,2.7c-0.1,0.4,0.2,0.3,1,1.9
		c0.5,1,0.8,1.5,0.6,2c-0.3,0.7-1.1,0.7-2.2,1.5c-1.4,1-1,1.8-1.8,2.6c-0.2,0.2-0.3,0.3-0.6,0.5c-0.6,0.4-1.3,0.6-2.1,0.9
		c-1-1.7-1.7-3.6-2-5.7c-0.1-0.7-0.2-1.4-0.2-2.2c0-0.7,0.1-1.4,0.2-2c0.2-1.7,0.6-3.2,1.4-4.6c0.3-0.6,0.6-1.3,1-1.9
		c0.2-0.3,0.4-0.6,0.6-0.9c2.6-0.2,4.7-0.3,7,0.4C234.7,37.9,237.2,38.7,237.4,40.1z"/>
	<path id="XMLID_17_" class="st5" d="M230.9,55.8c0,0.2-0.5,0.2-1.2,0.5c-0.4,0.2-0.8,0.2-1.3,0.5c-0.3,0.2-0.6,0.3-0.7,0.4
		c-0.7-0.8-1.4-1.7-2-2.6c-1-1.7-1.7-3.6-2-5.7c1.5,0.8,2.9,2,3.4,3.4c0.2,0.4,0.3,0.9,0.6,1.4c0.2,0.6,0.6,1.1,1.4,1.4
		c0.5,0.2,1,0.3,1.3,0.4C230.7,55.6,230.9,55.7,230.9,55.8z"/>
	<path id="XMLID_11_" class="st5" d="M247.9,57.2c-0.1,0.4,0.7,0.8,0.7,0.9c-0.1,0.1-1.5-1.1-3.4-1.8c-2.2-0.8-3.6-0.5-3.9-1.2
		c-0.2-0.6,0.5-1.7,1.3-2.2c1.2-0.7,2-0.1,5.2-0.4c0.9-0.1,1-0.2,1.3-0.1c1.6,0.2,3,1.6,3.3,2.6c-0.2,0.4-0.6,0.9-0.9,1.3
		C250.2,56.7,248,56.5,247.9,57.2z"/>
	<path id="XMLID_1_" class="st5" d="M238.6,46.5c0-1,0.6-1.7,1.4-1.8c0.9-0.1,1.5,1,1.4,1.8s-0.7,0.7-1,1.6
		c-0.4,1.1,0.5,1.8,0.2,2.5c-0.6,1.5-5.8,1.4-6.1,0.2c-0.2-0.6,1-1.8,2.2-1.9c0.8-0.1,1.2,0.3,1.6,0.1
		C238.8,48.7,238.7,47.6,238.6,46.5z"/>
</g>
<g id="Layer_4">
	<path id="XMLID_2_" class="st6" d="M226.8,43.1c0.2-0.7,2.3-0.7,3.3-0.7c0.8,0,1.4,0.1,1.8,0.2c1.8,0.3,3.2,1,3.1,1.1
		c-0.1,0.2-1.9-1-3.9-0.2c-1.3,0.5-1.5,1.3-2.5,1.3C227.6,44.6,226.6,43.7,226.8,43.1z"/>
	<path id="XMLID_3_" class="st6" d="M248.3,38.6c-0.1-0.7-3.8-1.5-5.3,0c-0.8,0.9-0.5,1.9-1.3,2.2c-1.1,0.5-2.7-1.4-3.1-1
		c-0.2,0.2,0.1,0.9,0.4,1.4c0.8,1,2.6,1.4,3.4,0.7c0.5-0.5,0.1-1.1,0.6-1.6c0.6-0.6,1.4-0.1,2.7-0.2C247,39.9,248.3,39.1,248.3,38.6
		z"/>
	<path id="XMLID_6_" class="st6" d="M232.7,54c-0.3,0.2-1.3-1-2.9-1.8c-2-1-4.1-0.6-4.1-0.4c0,0.2,3-0.2,4.2,1.5
		c0.9,1.3,0.1,2.6,0.9,3.2c1.1,0.9,4.2-0.2,4.3-1.8c0.1-1.4-2.1-2.7-2.6-2.4C232.3,52.6,233,53.8,232.7,54z"/>
</g>
</svg>
