<?xml version="1.0" encoding="utf-8"?>
<!-- Generator: Adobe Illustrator 19.0.0, SVG Export Plug-In . SVG Version: 6.00 Build 0)  -->
<svg version="1.1" id="Layer_1" xmlns="http://www.w3.org/2000/svg" xmlns:xlink="http://www.w3.org/1999/xlink" x="0px" y="0px"
	 viewBox="0 0 283.5 283.5" style="enable-background:new 0 0 283.5 283.5;" xml:space="preserve">
<style type="text/css">
	.st0{fill:#B2B2B2;}
	.st1{fill:none;stroke:#FFFFFF;stroke-miterlimit:10;}
	.st2{fill:#EC6132;}
	.st3{fill:#FFFFFF;}
	.st4{fill:#C93E17;}
	.st5{fill:#A43116;}
</style>
<g id="Layer_3">
	<path id="XMLID_17_" class="st0" d="M75.8,14.1c1.1-0.6,1.8-0.9,2.1-1.1C77.6,13.1,76.9,13.5,75.8,14.1c-1.2,0.7-3,1.5-5.2,2.7l0,0
		C72.8,15.5,74.5,14.7,75.8,14.1z"/>
	<path id="XMLID_19_" class="st0" d="M79,12.5c-0.2,0.1-0.4,0.2-0.6,0.3C78.5,12.7,78.7,12.6,79,12.5z"/>
</g>
<circle class="st1" cx="141.4" cy="142.1" r="139.6"/>
<g id="Layer_1_1_">
	<path id="XMLID_42_" class="st2" d="M251.2,45.5c0,1.8-0.6,3.5-1.5,4.9c-1,1.5-2.5,2.6-4.1,3.2c-0.4,0.2-0.9,0.3-1.4,0.4
		c-0.5,0.1-1,0.1-1.6,0.1c-0.8,0-1.6-0.1-2.4-0.4c-0.9-0.3-1.9-0.8-2.7-1.3c-1.6-1.2-2.8-2.9-3.2-4.9c-0.1-0.6-0.3-1.3-0.3-2
		c0-0.2,0-0.4,0-0.6c0.2-2.7,1.5-5,3.6-6.4c0.4-0.3,0.9-0.6,1.5-0.8c0.3-0.1,0.6-0.3,0.8-0.3c0.6-0.2,1.3-0.4,2-0.4
		c0.3,0,0.5-0.1,0.8-0.1c1.1,0,2.1,0.2,3,0.6C248.9,38.6,251.2,41.8,251.2,45.5z"/>
	<path id="XMLID_11_" class="st3" d="M245.6,37.4c-0.4,0.4-1.1,0.7-1.8,0.8c-0.3,0.1-0.7,0.1-1,0.1c-1.2,0-2.3-0.4-2.9-1
		c0.6-0.2,1.3-0.4,2-0.4c0.3,0,0.5-0.1,0.8-0.1C243.6,36.9,244.6,37.1,245.6,37.4z"/>
	<path id="XMLID_8_" class="st4" d="M244.2,39.2c-0.1,0.3-0.3,0.5-0.6,0.7c-0.4,0.3-0.9,0.4-1.4,0.5c-0.5,0.1-1.3,0.1-3.1-0.9
		c-0.8-0.4-1.2-0.7-1.5-0.9c0.4-0.3,0.9-0.6,1.5-0.8c0.3-0.1,0.6-0.3,0.8-0.3c0.7,0.6,1.7,1,2.9,1c0.4,0,0.7-0.1,1-0.1
		C244.1,38.5,244.2,38.8,244.2,39.2z"/>
	<path id="XMLID_23_" class="st4" d="M244.1,53.9c-0.5,0.1-1,0.1-1.6,0.1c-0.8,0-1.6-0.1-2.4-0.4c-0.9-0.3-1.9-0.8-2.7-1.3
		c-1.6-1.2-2.8-2.9-3.2-4.9c-0.1-0.6-0.3-1.3-0.3-2c0-0.2,0-0.4,0-0.6c0.6-0.2,1.5-0.3,2.3-0.1c0.1,0,0.8,0.1,1.3,0.4
		c0.6,0.3,1.2,0.6,1.3,1.3c0.1,0.3,0,0.6-0.1,0.9c0,0,0,0.1-0.1,0.1c-0.3,0.4-0.7,0.9-0.6,1.5c0.2,1.1,1.9,1.1,3.7,2.5
		c0.4,0.3,0.9,0.8,1.3,1.2c0.1,0.1,0.1,0.1,0.1,0.2C243.7,53.1,243.9,53.5,244.1,53.9z"/>
	<path id="XMLID_24_" class="st4" d="M243.5,43.1c-0.3,0.4-0.7,0.9-1.1,1.4c-0.9,1-1.9,2.1-3.3,2.8c-0.1,0.1-0.1,0.1-0.3,0.1
		c-0.3,0.1-0.7,0.3-1.1,0.3c-1.2,0.3-2.4,0.1-3.5-0.3c-0.1-0.6-0.3-1.3-0.3-2c0-0.2,0-0.4,0-0.6c0.2-2.7,1.5-5,3.6-6.4
		c0.4-0.3,0.9-0.6,1.5-0.8c0.9,0.2,3.5,0.8,4.6,2.1c0.3,0.3,0.5,0.7,0.6,1.1C244.3,41.7,244,42.4,243.5,43.1z"/>
	<path id="XMLID_18_" class="st4" d="M249.7,50.3c-1,1.5-2.5,2.6-4.1,3.2c-0.4,0.2-0.9,0.3-1.4,0.4c-0.5,0.1-1,0.1-1.6,0.1
		c-0.8,0-1.6-0.1-2.4-0.4c-0.2-0.2-0.3-0.4-0.2-0.6c0.1-0.5,1.8-0.3,3.4-0.4c0.2,0,0.3-0.1,0.5-0.1l0,0c0.9-0.2,1.8-0.5,2.3-1.3
		c0.7-1.1,0.3-2.1,0.9-2.4C247.7,48.7,248.9,49.3,249.7,50.3z"/>
	<path id="XMLID_7_" class="st5" d="M235.9,44.1c-0.1,0.9,3.4,1.8,3.1,2.3c-0.5,0.7-0.6,1.6-0.6,1.6c0,0.1,0.3-0.1,2.6-1.5
		c1.6-0.9,3-3.1,2.4-4.2c-0.6-1.1-3.3-1.2-4.5-0.1C238.2,42.8,236,43.2,235.9,44.1z"/>
	<path id="XMLID_20_" class="st5" d="M240.1,53.7c-0.9-0.3-1.9-0.8-2.7-1.3c2.7,0.5,4.3,0.1,5.7,0.2c0.3,0,0.4,0.1,0.6,0.1l0,0
		c0.5,0.1,1,0.4,1.6,0.8c0.1,0,0.1,0.1,0.1,0.1c-0.4,0.2-0.9,0.3-1.4,0.4c-0.5,0.1-1,0.1-1.6,0.1C241.7,54.1,240.9,53.9,240.1,53.7z
		"/>
	<path id="XMLID_9_" class="st5" d="M247.3,42.2c-0.8,0.4-1.2,4.7-2.4,5.9c-0.5,0.6-1.2,0.6-1.2,0.7c0.1,0.1,1.4,0.1,2.4-0.7
		c0.9-0.8,1.6-2.3,0.9-3.3C246.8,44.4,247.7,42,247.3,42.2z"/>
</g>
</svg>
