<?xml version="1.0" encoding="utf-8"?>
<!-- Generator: Adobe Illustrator 19.0.0, SVG Export Plug-In . SVG Version: 6.00 Build 0)  -->
<svg version="1.1" xmlns="http://www.w3.org/2000/svg" xmlns:xlink="http://www.w3.org/1999/xlink" x="0px" y="0px"
	 viewBox="0 0 283.5 283.5" style="enable-background:new 0 0 283.5 283.5;" xml:space="preserve">
<style type="text/css">
	.st0{fill:#B2B2B2;}
	.st1{fill:#EC6132;}
	.st2{fill:#FFFFFF;}
	.st3{fill:#C93E17;}
	.st4{fill:#A43116;}
	.st5{fill:none;}
</style>
<g id="Layer_3">
	<path id="XMLID_17_" class="st0" d="M75.8,14.1c1.1-0.6,1.8-0.9,2.1-1.1C77.6,13.1,76.9,13.5,75.8,14.1c-1.2,0.7-3,1.5-5.2,2.7
		c0,0,0,0,0,0C72.8,15.5,74.5,14.7,75.8,14.1z"/>
	<path id="XMLID_19_" class="st0" d="M79,12.5c-0.2,0.1-0.4,0.2-0.6,0.3C78.5,12.7,78.7,12.6,79,12.5z"/>
</g>
<g id="Layer_1">
	<path id="XMLID_42_" class="st1" d="M283.5,13.6c0,2.9-0.9,5.5-2.4,7.7c-1.6,2.3-3.9,4.1-6.5,5c-0.7,0.3-1.4,0.5-2.2,0.6
		c-0.8,0.1-1.6,0.2-2.5,0.2c-1.3,0-2.6-0.2-3.8-0.6c-1.5-0.5-3-1.2-4.2-2.1c-2.5-1.9-4.4-4.6-5.1-7.8c-0.2-1-0.4-2.1-0.4-3.1
		c0-0.3,0-0.6,0-0.9c0.3-4.2,2.4-7.9,5.7-10.2c0.7-0.5,1.5-0.9,2.3-1.3c0.4-0.2,0.9-0.4,1.3-0.5c1-0.3,2.1-0.6,3.2-0.7
		c0.4,0,0.8-0.1,1.2-0.1c1.7,0,3.3,0.3,4.8,0.9C279.8,2.8,283.5,7.8,283.5,13.6z"/>
	<path id="XMLID_11_" class="st2" d="M274.6,0.9c-0.7,0.6-1.7,1.1-2.8,1.3c-0.5,0.1-1.1,0.2-1.6,0.2c-1.9,0-3.6-0.6-4.6-1.6
		c1-0.3,2.1-0.6,3.2-0.7c0.4,0,0.8-0.1,1.2-0.1C271.5,0,273.1,0.3,274.6,0.9z"/>
	<path id="XMLID_8_" class="st3" d="M272.4,3.6c-0.1,0.4-0.4,0.8-0.9,1.1c-0.7,0.4-1.5,0.7-2.2,0.8c-0.8,0.1-2,0.1-4.9-1.4
		c-1.2-0.6-1.9-1.1-2.4-1.5c0.7-0.5,1.5-0.9,2.3-1.3c0.4-0.2,0.9-0.4,1.3-0.5c1.1,1,2.7,1.6,4.6,1.6c0.6,0,1.1-0.1,1.6-0.2
		C272.2,2.6,272.5,3.1,272.4,3.6z"/>
	<path id="XMLID_23_" class="st3" d="M272.3,26.9c-0.8,0.1-1.6,0.2-2.5,0.2c-1.3,0-2.6-0.2-3.8-0.6c-1.5-0.5-3-1.2-4.2-2.1
		c-2.5-1.9-4.4-4.6-5.1-7.8c-0.2-1-0.4-2.1-0.4-3.1c0-0.3,0-0.6,0-0.9c1-0.3,2.3-0.4,3.6-0.1c0.2,0,1.2,0.2,2.1,0.6
		c0.9,0.4,1.9,1,2.1,2c0.1,0.5,0,1-0.2,1.4c0,0,0,0.1-0.1,0.1c-0.4,0.7-1.1,1.4-0.9,2.3c0.3,1.7,3,1.7,5.9,4c0.6,0.5,1.4,1.2,2,1.9
		c0.1,0.1,0.1,0.2,0.2,0.3C271.6,25.7,272,26.3,272.3,26.9z"/>
	<path id="XMLID_24_" class="st3" d="M271.3,9.8c-0.5,0.7-1.1,1.4-1.8,2.2c-1.4,1.6-3,3.4-5.3,4.4c-0.1,0.1-0.2,0.1-0.4,0.2
		c-0.5,0.2-1.1,0.4-1.7,0.5c-1.9,0.4-3.8,0.2-5.5-0.4c-0.2-1-0.4-2.1-0.4-3.1c0-0.3,0-0.6,0-0.9c0.3-4.2,2.4-7.9,5.7-10.2
		c0.7-0.5,1.5-0.9,2.3-1.3c1.5,0.3,5.5,1.3,7.3,3.4c0.4,0.5,0.8,1.1,0.9,1.8C272.6,7.6,272.1,8.7,271.3,9.8z"/>
	<path id="XMLID_18_" class="st3" d="M281.1,21.3c-1.6,2.3-3.9,4.1-6.5,5c-0.7,0.3-1.4,0.5-2.2,0.6c-0.8,0.1-1.6,0.2-2.5,0.2
		c-1.3,0-2.6-0.2-3.8-0.6c-0.3-0.3-0.4-0.6-0.3-0.9c0.2-0.8,2.8-0.4,5.4-0.7c0.3,0,0.5-0.1,0.8-0.1c0,0,0,0,0,0
		c1.5-0.3,2.9-0.8,3.7-2.1c1.1-1.7,0.5-3.4,1.4-3.8C278,18.7,279.8,19.7,281.1,21.3z"/>
	<path id="XMLID_7_" class="st4" d="M259.3,11.5c-0.2,1.4,5.4,2.9,4.9,3.6c-0.8,1.1-1,2.5-1,2.6c0,0.2,0.5-0.2,4.1-2.4
		c2.5-1.5,4.8-4.9,3.8-6.7c-1-1.8-5.2-1.9-7.2-0.1C263,9.3,259.5,10,259.3,11.5z"/>
	<path id="XMLID_20_" class="st4" d="M266,26.6c-1.5-0.5-3-1.2-4.2-2.1c4.2,0.8,6.8,0.1,9.1,0.3c0.4,0,0.7,0.1,1,0.1c0,0,0,0,0,0
		c0.8,0.2,1.6,0.6,2.5,1.3c0.1,0,0.1,0.1,0.2,0.1c-0.7,0.3-1.4,0.5-2.2,0.6c-0.8,0.1-1.6,0.2-2.5,0.2C268.5,27.2,267.2,27,266,26.6z
		"/>
	<path id="XMLID_9_" class="st4" d="M277.4,8.4c-1.2,0.6-1.9,7.4-3.8,9.4c-0.8,0.9-1.9,1-1.9,1.1c0.1,0.2,2.2,0.2,3.8-1.1
		c1.4-1.2,2.5-3.7,1.4-5.2C276.5,11.9,278,8.1,277.4,8.4z"/>
</g>
<g id="Layer_2">
	<line id="XMLID_1_" class="st5" x1="0" y1="283.5" x2="282.7" y2="0.7"/>
</g>
</svg>
