<?xml version="1.0" encoding="utf-8"?>
<!-- Generator: Adobe Illustrator 19.0.0, SVG Export Plug-In . SVG Version: 6.00 Build 0)  -->
<svg version="1.1" id="Layer_1" xmlns="http://www.w3.org/2000/svg" xmlns:xlink="http://www.w3.org/1999/xlink" x="0px" y="0px"
	 viewBox="0 0 283.5 283.5" style="enable-background:new 0 0 283.5 283.5;" xml:space="preserve">
<style type="text/css">
	.st0{fill:#B17F4A;}
	.st1{fill:#CA9E67;}
	.st2{fill:none;}
</style>
<path id="XMLID_15_" class="st0" d="M283.5,19c0,7.5-4.3,13.9-10.5,17c-2.6,1.3-5.5,2-8.5,2c-10.5,0-19-8.5-19-19
	c0-1.8,0.2-3.5,0.7-5.1c1.8-6.5,7-11.7,13.6-13.4c0,0,0,0,0,0c1.5-0.4,3.1-0.6,4.7-0.6c6.8,0,12.8,3.6,16.2,9
	C282.4,11.9,283.5,15.3,283.5,19z"/>
<path id="XMLID_10_" class="st1" d="M273.2,27.1c-1.1,0.7-1.6,0.5-3.2,1.2c-2.2,0.9-4.4,2.6-4.2,3.2c0.3,0.9,5.8-1.2,7.1,0.8
	c0.3,0.4,0.2,1,0.2,2.3c0,0.6-0.1,1.1-0.1,1.6c-2.6,1.3-5.5,2-8.5,2c-10.5,0-19-8.5-19-19c0-1.8,0.2-3.5,0.7-5.1
	c0.5-0.1,1.1-0.1,1.7-0.2c5.3-0.6,8.6-0.4,8.6-0.3c0,0.2-6-0.2-6.6,1.8c-0.5,1.4,1.8,3.8,4.3,4.5c3.8,1,7.4-2.2,8-2.7
	c2.7-2.4,2.5-4.4,4.3-4.8c3-0.7,7.3,4.2,6.5,5.9c-0.4,0.9-1.8,0.4-6.2,1.3c-3.4,0.6-6.4,1.3-6.9,3.1c-0.2,0.7-0.1,1.6,0.4,2.3
	c1.6,1.8,6.6,0.4,12-1.1c1.8-0.5,3-0.9,3.3-0.4C276,24,274.8,26,273.2,27.1z"/>
<path id="XMLID_9_" class="st1" d="M263.2,5.5c0.1,0,0.2,0,0.2-0.1c-1.8,1.1-4,1.9-4.2,2C259.4,7.2,261.2,6.2,263.2,5.5z"/>
<path id="XMLID_11_" class="st1" d="M280.6,9c-2.4-0.6-3.4-2-6.4-3.1c-0.5-0.2-5.5-2-10.8-0.4c1.3-0.8,2.4-1.7,2.3-2.5
	c-0.1-0.8-1.4-1.3-2.4-1.7c-1.3-0.5-2.5-0.6-3.5-0.7c1.5-0.4,3.1-0.6,4.7-0.6C271.2,0,277.2,3.6,280.6,9z"/>
<line id="XMLID_1_" class="st2" x1="0" y1="283.5" x2="283.5" y2="0"/>
</svg>
