<?xml version="1.0" encoding="utf-8"?>
<!-- Generator: Adobe Illustrator 19.0.0, SVG Export Plug-In . SVG Version: 6.00 Build 0)  -->
<svg version="1.1" id="Layer_1" xmlns="http://www.w3.org/2000/svg" xmlns:xlink="http://www.w3.org/1999/xlink" x="0px" y="0px"
	 viewBox="0 0 283.5 283.5" style="enable-background:new 0 0 283.5 283.5;" xml:space="preserve">
<style type="text/css">
	.st0{fill:none;stroke:#FFFFFF;stroke-width:3;stroke-miterlimit:10;}
	.st1{fill:#B17F4A;}
	.st2{fill:#CA9E67;}
</style>
<circle class="st0" cx="141.8" cy="141.7" r="137.5"/>
<path id="XMLID_15_" class="st1" d="M251.8,44.7c0,5.3-3.1,9.9-7.5,12.1c-1.8,0.9-3.9,1.4-6,1.4c-7.5,0-13.5-6-13.5-13.5
	c0-1.3,0.1-2.5,0.5-3.6c1.3-4.6,5-8.3,9.7-9.5l0,0c1.1-0.3,2.2-0.4,3.3-0.4c4.8,0,9.1,2.6,11.5,6.4C251,39.7,251.8,42.1,251.8,44.7z
	"/>
<path id="XMLID_10_" class="st2" d="M244.5,50.5c-0.8,0.5-1.1,0.4-2.3,0.9c-1.6,0.6-3.1,1.8-3,2.3c0.2,0.6,4.1-0.9,5,0.6
	c0.2,0.3,0.1,0.7,0.1,1.6c0,0.4-0.1,0.8-0.1,1.1c-1.8,0.9-3.9,1.4-6,1.4c-7.5,0-13.5-6-13.5-13.5c0-1.3,0.1-2.5,0.5-3.6
	c0.4-0.1,0.8-0.1,1.2-0.1c3.8-0.4,6.1-0.3,6.1-0.2c0,0.1-4.3-0.1-4.7,1.3c-0.4,1,1.3,2.7,3.1,3.2c2.7,0.7,5.3-1.6,5.7-1.9
	c1.9-1.7,1.8-3.1,3.1-3.4c2.1-0.5,5.2,3,4.6,4.2c-0.3,0.6-1.3,0.3-4.4,0.9c-2.4,0.4-4.5,0.9-4.9,2.2c-0.1,0.5-0.1,1.1,0.3,1.6
	c1.1,1.3,4.7,0.3,8.5-0.8c1.3-0.4,2.1-0.6,2.3-0.3C246.4,48.3,245.6,49.7,244.5,50.5z"/>
<path id="XMLID_9_" class="st2" d="M237.4,35.2c0.1,0,0.1,0,0.1-0.1c-1.3,0.8-2.8,1.3-3,1.4C234.7,36.4,235.9,35.7,237.4,35.2z"/>
<path id="XMLID_11_" class="st2" d="M249.7,37.6c-1.7-0.4-2.4-1.4-4.5-2.2c-0.4-0.1-3.9-1.4-7.7-0.3c0.9-0.6,1.7-1.2,1.6-1.8
	c-0.1-0.6-1-0.9-1.7-1.2c-0.9-0.4-1.8-0.4-2.5-0.5c1.1-0.3,2.2-0.4,3.3-0.4C243,31.2,247.3,33.8,249.7,37.6z"/>
</svg>
