<?xml version="1.0" encoding="utf-8"?>
<!-- Generator: Adobe Illustrator 19.0.0, SVG Export Plug-In . SVG Version: 6.00 Build 0)  -->
<svg version="1.1" id="Layer_1" xmlns="http://www.w3.org/2000/svg" xmlns:xlink="http://www.w3.org/1999/xlink" x="0px" y="0px"
	 viewBox="0 0 283.5 283.5" style="enable-background:new 0 0 283.5 283.5;" xml:space="preserve">
<style type="text/css">
	.st0{fill:#F9B233;}
</style>
<path id="XMLID_30_" class="st0" d="M55.7,167.2c1.8,7,4.4,13.6,7.7,19.8c-2.2,0-4.4-0.3-6.6-0.8l-0.9-0.8l-6.6-6L8,141.7l42.3-39.2
	l6.4-6l0.1-0.1c3.4,0,6.6,0.4,9.8,1.1c-5.1,8.1-9,17.1-11.3,26.8c-1.6,6.6-2.4,13.5-2.4,20.7C52.9,152.7,53.9,160.1,55.7,167.2z"/>
<path id="XMLID_66_" class="st0" d="M228.8,100.6c-1.1-2.3-2.3-4.6-3.6-6.8c-8.6-14.9-21-27.3-36-35.7c-1.6-0.9-3.2-1.8-4.9-2.6
	c-12.8-6.3-27.3-9.9-42.6-9.9c-14.8,0-28.8,3.3-41.3,9.3c-2.1,1-4.1,2-6.1,3.2c-15.9,9-29,22.5-37.6,38.6c-2.4,4.4-4.4,9.1-6,13.9
	c-3.4,9.8-5.2,20.3-5.2,31.2c0,10.4,1.7,20.5,4.7,29.9c1.5,4.8,3.5,9.4,5.7,13.8c9.6,18.8,25.2,34.1,44.3,43.2
	c3.2,1.6,6.5,2.9,9.9,4.1c9.9,3.4,20.5,5.3,31.6,5.3c11.5,0,22.4-2,32.6-5.7c2.6-0.9,5.2-2,7.7-3.1c17.6-8.1,32.3-21.3,42.2-37.8
	c1.4-2.3,2.7-4.7,3.9-7.2c6.3-12.8,9.9-27.2,9.9-42.5C238,127,234.7,113,228.8,100.6z M223.7,179.4c-1,2.5-2.2,4.9-3.5,7.3
	c-7.7,14.5-19.4,26.7-33.5,35c-7.5,4.4-15.7,7.7-24.3,9.8c-6.6,1.6-13.5,2.4-20.6,2.4c-9.6,0-18.8-1.5-27.4-4.3
	c-6.2-2-12.1-4.7-17.7-8c-14-8.3-25.5-20.3-33.2-34.6c-3.3-6.2-5.9-12.8-7.7-19.8c-1.8-7.1-2.8-14.5-2.8-22.2c0-7.1,0.8-14,2.4-20.7
	c2.3-9.6,6.2-18.6,11.3-26.8c7.6-12,17.9-22,30.1-29.2c5.3-3.1,10.9-5.7,16.8-7.7c8.9-3,18.3-4.6,28.2-4.6c7.9,0,15.5,1,22.8,3
	c7.6,2,14.7,5,21.4,8.8c12.2,7,22.6,16.9,30.3,28.7c3.3,5,6,10.3,8.2,16c4,10,6.1,21,6.1,32.4C230.6,157.2,228.1,168.8,223.7,179.4z
	"/>
<path id="XMLID_25_" class="st0" d="M186.9,58.2c0,3.3-0.4,6.6-1,9.7c-6.6-3.8-13.8-6.8-21.4-8.8c-7.3-1.9-14.9-3-22.8-3
	c-9.8,0-19.3,1.6-28.2,4.6c-5.9,2-11.5,4.5-16.8,7.7c-0.4-3.3-0.3-6.7,0.6-10.2l0.1-0.2l3-3.3l41.3-45.3l42.6,46l2.5,2.7L186.9,58.2
	z"/>
<path id="XMLID_23_" class="st0" d="M274,141.7l-45.8,42.5l-3,2.7c-0.4,0-0.8,0-1.2,0c-1.3,0-2.6-0.1-3.8-0.3
	c1.3-2.4,2.4-4.8,3.5-7.3c4.4-10.6,6.9-22.2,6.9-34.4c0-11.5-2.2-22.4-6.1-32.4c-2.2-5.6-5-11-8.2-16c2.9-0.2,5.8,0,8.8,0.7
	c0,0,0.1,0,0.1,0l3.6,3.3L274,141.7z"/>
<path id="XMLID_27_" class="st0" d="M186.7,221.6c-0.1,1-0.3,2-0.5,3l-4.1,4.6l-3,3.3l-37.3,40.9L104.3,233l-4.1-4.4l-3.7-4
	c0-1,0-2,0.1-3.1c5.5,3.3,11.4,6,17.7,8c8.6,2.8,17.9,4.3,27.4,4.3c7.1,0,14-0.8,20.6-2.4C171,229.4,179.2,226,186.7,221.6z"/>
<path id="XMLID_26_" class="st0" d="M114.3,229.5c-1.3,1.2-2.6,2.2-4.1,3.2c0,0-0.1,0-0.1,0.1l-5.8,0.3l-57.1,2.7l2.1-56.3l0.3-7.1
	c0.2-0.2,0.4-0.4,0.6-0.6c1.7-1.7,3.6-3.1,5.5-4.4c1.8,7,4.4,13.6,7.7,19.8c7.7,14.3,19.2,26.3,33.2,34.6
	C102.2,224.8,108.1,227.5,114.3,229.5z"/>
<path id="XMLID_24_" class="st0" d="M113.5,60.8c-5.9,2-11.5,4.5-16.8,7.7c-12.2,7.2-22.6,17.2-30.1,29.2c-5.1,8.1-9,17.1-11.3,26.8
	c-1.6-1.5-3-3.3-4.2-5.3l-0.4-8.6l-0.4-8l-2.2-46.3l46.2,1.8l3.1,0.1l14.1,0.5C112.3,59.3,112.9,60,113.5,60.8z"/>
<path id="XMLID_20_" class="st0" d="M226.6,56.2l-1.4,37.5l-0.1,3.5l-0.6,15.3c-2.2-5.6-5-11-8.2-16c-7.7-11.8-18.1-21.7-30.3-28.7
	c-6.6-3.8-13.8-6.8-21.4-8.8l22.3-1l2.4-0.1L226.6,56.2z"/>
<path id="XMLID_22_" class="st0" d="M226.2,234.3l-47.2-1.8l-4.6-0.2l-11.5-0.4c-0.1-0.2-0.3-0.3-0.4-0.4c8.7-2.1,16.8-5.4,24.3-9.8
	c14.1-8.3,25.8-20.5,33.5-35c1.3-2.4,2.4-4.8,3.5-7.3l0.4,7.5l0.2,4.4L226.2,234.3z"/>
</svg>
