<?xml version="1.0" encoding="utf-8"?>
<!-- Generator: Adobe Illustrator 19.0.0, SVG Export Plug-In . SVG Version: 6.00 Build 0)  -->
<svg version="1.1" xmlns="http://www.w3.org/2000/svg" xmlns:xlink="http://www.w3.org/1999/xlink" x="0px" y="0px"
	 viewBox="0 0 283.5 283.5" style="enable-background:new 0 0 283.5 283.5;" xml:space="preserve">
<style type="text/css">
	.st0{fill:#F39200;}
	.st1{fill:#E94E1B;}
	.st2{fill:#F9B233;}
	.st3{fill:none;}
</style>
<g id="Layer_1">
	<path id="XMLID_27_" class="st0" d="M283.4,19.4v0.1c0,10.8-8.7,19.5-19.5,19.5c-2.9,0-5.7-0.6-8.1-1.8
		c-6.7-3.1-11.4-9.9-11.4-17.7c0-0.9,0.1-1.7,0.2-2.5c0.3-2.1,0.9-4,1.7-5.8c0.4-0.8,0.8-1.6,1.3-2.4c1.1-1.7,2.5-3.3,4.2-4.5
		c3.3-2.7,7.6-4.2,12.1-4.2c3.4,0,6.6,0.9,9.4,2.4c1.6,0.9,3.1,2,4.4,3.3C281.2,9.3,283.3,14.1,283.4,19.4z"/>
	<path id="XMLID_17_" class="st1" d="M264.1,34.7c-1.7,1.1-4.2-2-6.5-1c-1.4,0.6-1.5,2.2-1.8,3.6c-6.7-3.1-11.4-9.9-11.4-17.7
		c0-0.9,0.1-1.7,0.2-2.5c1.3-0.1,2.7-0.2,4.5-0.3c4.9-0.4,7.2-0.7,7.8,0.4c0.8,1.6-3.4,4.2-2.5,6.7c0.4,1,2.2,1.9,5.9,3.6
		c3,1.4,4,1.6,4.6,2.7C265.5,31.6,265.3,33.9,264.1,34.7z"/>
	<path id="XMLID_3_" class="st1" d="M270.4,11.8c-1.5-0.3-3.2,0.4-3.4,1.3c-0.1,1,2.2,1.2,3.4,3.4c1.3,2.4-0.2,4.6,1,5.5
		c1,0.7,3.2,0.1,4-1.3c1.1-1.8-0.8-4.4-2.1-6.3C272.4,13.1,271.7,12.1,270.4,11.8z"/>
	<path id="XMLID_16_" class="st1" d="M273.3,2.4c-0.2,0.3-0.5,0.6-0.8,0.8c-2.4,1.5-5.5-2.4-9.9-1c-2.8,0.9-2.4,2.8-5,3.4
		c-2,0.5-4-0.2-5.9-1.3c3.3-2.7,7.6-4.2,12.1-4.2C267.3,0,270.5,0.9,273.3,2.4z"/>
	<path id="XMLID_5_" class="st2" d="M270.8,32.6c-0.9-1.1,2.1-5.8,6.1-8.2c0.5-0.3,3-1.8,3.8-1c0.7,0.7-0.3,2.8-1,4
		C277.1,31.3,271.7,33.7,270.8,32.6z"/>
	<path id="XMLID_15_" class="st2" d="M261.3,10.8c0.1,0.8-3.8,2.9-8,2.7c-2.8-0.1-5.3-1.2-7.1-2.4c0.4-0.8,0.8-1.6,1.3-2.4
		c1.6,0.4,3.7,0.8,6.2,1.2C258.7,10.5,261.2,10.1,261.3,10.8z"/>
	<path id="XMLID_14_" class="st2" d="M283.4,19.4c-3.7-1.3-7.8-4.4-7.8-8.4c0-1.8,0.9-3.9,2.1-5.2C281.2,9.3,283.3,14.1,283.4,19.4z
		"/>
</g>
<g id="Layer_2">
	<line id="XMLID_1_" class="st3" x1="0" y1="283.5" x2="281.2" y2="2.2"/>
</g>
</svg>
